<?xml version="1.0" encoding="UTF-8"?>
<svg width="128px" height="128px" viewBox="0 0 128 128" version="1.1" xmlns="http://www.w3.org/2000/svg" xmlns:xlink="http://www.w3.org/1999/xlink">
  <title>logo</title>
  <g id="页面-1" stroke="none" stroke-width="1" fill="none" fill-rule="evenodd">
    <g id="logo">
      <rect id="bound" x="0.0159980002" y="0" width="127.894476" height="127.8402"></rect>
      <path d="M13.7744361,18 L111.93985,18 C115.128982,18 117.714286,20.5842059 117.714286,23.7719855 L117.714286,35.3159565 C117.714286,38.5037361 115.128982,41.087942 111.93985,41.087942 L13.7744361,41.087942 C10.5853031,41.087942 8,38.5037361 8,35.3159565 L8,23.7719855 C8,20.5842059 10.5853031,18 13.7744361,18 Z M54.1954887,52.631913 L111.93985,52.631913 C115.128982,52.631913 117.714286,55.2161193 117.714286,58.4038985 L117.714286,104.579783 C117.714286,107.767562 115.128982,110.351768 111.93985,110.351768 L54.1954887,110.351768 C51.0063557,110.351768 48.4210526,107.767562 48.4210526,104.579783 L48.4210526,58.4038985 C48.4210526,55.2161193 51.0063557,52.631913 54.1954887,52.631913 Z" id="Combined-Shape" fill="#008FFF" fill-rule="nonzero"></path>
      <rect id="Rectangle-7-Copy-2" fill="#FF3546" fill-rule="nonzero" opacity="0.80430821" x="8" y="53" width="28.872253" height="57.72" rx="3.33333333"></rect>
    </g>
  </g>
</svg>
